#!OML:ASF I:\Actors\actors\Patient Classification 2\Patient 1\Session 1\actor1.ASF
:FULLY-SPECIFIED
:DEGREES
274
root -1.55817 18.8449 5.27839 13.7618 -1.90778 -1.3885
lowerback 26.7452 -1.72992 -3.18143
upperback 5.97771 -2.86879 2.0879
thorax -7.86066 -1.30064 5.086
lowerneck -8.55133 4.79816 7.10757
upperneck 0.378382 5.93749 -7.33477
head 2.1332 2.8208 -3.40382
rclavicle 1.21259e-014 -5.1684e-015
rhumerus 22.4612 41.9986 -66.8202
rradius 46.1545
rwrist 15.3393
rhand -13.5373 -50.0082
rfingers 7.12502
rthumb 12.5752 -79.6097
lclavicle 1.21259e-014 -5.1684e-015
lhumerus -45.0558 -20.3183 90.0934
lradius 81.1345
lwrist 8.69034
lhand -17.7033 -24.7855
lfingers 7.12502
lthumb 8.55671 5.02113
rfemur -14.6726 1.61424 18.2917
rtibia 12.1857
rfoot -18.5308 -11.093
rtoes -7.3328
lfemur -21.8731 1.3155 -9.75326
ltibia 23.4881
lfoot -15.2974 8.41442
ltoes -57.689
275
root -1.54248 18.8466 5.28357 13.8646 -1.6833 -1.43782
lowerback 26.6449 -1.66422 -2.99804
upperback 5.9678 -2.73426 2.07145
thorax -7.84636 -1.23993 4.91378
lowerneck -8.35728 4.54049 7.02581
upperneck 0.151975 5.59876 -7.2358
head 1.98738 2.65742 -3.37608
rclavicle -5.56597e-015 1.19271e-015
rhumerus 22.0144 41.0422 -67.2702
rradius 46.0106
rwrist 15.5259
rhand -13.4019 -50.0125
rfingers 7.12502
rthumb 12.7058 -79.606
lclavicle -5.56597e-015 1.19271e-015
lhumerus -45.1722 -20.6039 90.3282
lradius 81.6385
lwrist 8.72248
lhand -17.5256 -24.7134
lfingers 7.12502
lthumb 8.72813 5.08618
rfemur -14.5714 1.36892 18.3407
rtibia 11.8465
rfoot -18.3265 -11.1751
rtoes -7.79003
lfemur -22.1256 1.24857 -9.7288
ltibia 23.6704
lfoot -15.3317 8.27419
ltoes -57.5857
276
root -1.52909 18.8487 5.28807 13.9917 -1.46754 -1.50493
lowerback 26.5575 -1.59037 -2.84644
upperback 5.91721 -2.59754 2.06597
thorax -7.88107 -1.17533 4.7741
lowerneck -8.2125 4.33373 6.89424
upperneck 0.0722543 5.33307 -7.04076
head 1.90027 2.53111 -3.29962
rclavicle 8.34896e-015 9.54166e-015
rhumerus 21.4784 40.1031 -67.8467
rradius 45.8475
rwrist 15.6965
rhand -13.3269 -50.0237
rfingers 7.12502
rthumb 12.778 -79.6127
lclavicle 8.34896e-015 9.54166e-015
lhumerus -45.4509 -20.9484 90.5779
lradius 82.3017
lwrist 8.74524
lhand -17.4952 -24.6983
lfingers 7.12502
lthumb 8.75752 5.09998
rfemur -14.5036 1.26709 18.3965
rtibia 11.5185
rfoot -18.2569 -11.3355
rtoes -7.89831
lfemur -22.4092 1.26847 -9.69446
ltibia 23.8414
lfoot -15.3318 8.11318
ltoes -57.5372
277
root -1.51498 18.8498 5.29149 14.0758 -1.22725 -1.58608
lowerback 26.5675 -1.52745 -2.65905
upperback 5.85052 -2.46667 2.0619
thorax -7.98278 -1.11183 4.62281
lowerneck -8.2752 4.12198 6.52769
upperneck 0.190789 5.07071 -6.59423
head 1.89933 2.40725 -3.0884
rclavicle -5.56597e-015 -1.37161e-014
rhumerus 20.8546 39.1338 -68.5058
rradius 45.7604
rwrist 15.8646
rhand -13.2116 -50.1054
rfingers 7.12502
rthumb 12.8892 -79.6874
lclavicle -5.56597e-015 -1.37161e-014
lhumerus -45.6544 -21.2825 90.8321
lradius 82.9166
lwrist 8.86677
lhand -17.219 -24.5123
lfingers 7.12502
lthumb 9.024 5.27467
rfemur -14.3905 1.18945 18.4607
rtibia 11.1917
rfoot -18.2718 -11.4824
rtoes -7.43455
lfemur -22.6617 1.26193 -9.64246
ltibia 24.0144
lfoot -15.2927 7.95954
ltoes -57.552
278
root -1.49857 18.85 5.29741 14.1341 -0.954642 -1.66677
lowerback 26.5864 -1.48644 -2.3928
upperback 5.79135 -2.34442 2.0379
thorax -8.08333 -1.05449 4.40625
lowerneck -8.36015 3.85822 6.18363
upperneck 0.362542 4.73625 -6.11931
head 1.91751 2.24791 -2.87688
rclavicle -1.05356e-014 2.38542e-015
rhumerus 20.1307 38.0655 -69.2525
rradius 45.7702
rwrist 16.0181
rhand -13.1054 -50.1307
rfingers 7.12502
rthumb 12.9916 -79.7062
lclavicle -1.05356e-014 2.38542e-015
lhumerus -45.7375 -21.6156 91.0676
lradius 83.4354
lwrist 8.97979
lhand -16.7991 -24.2366
lfingers 7.12502
lthumb 9.4292 5.53252
rfemur -14.231 1.00363 18.5353
rtibia 10.8466
rfoot -18.2057 -11.5815
rtoes -7.15945
lfemur -22.9031 1.17759 -9.58256
ltibia 24.2358
lfoot -15.2999 7.81809
ltoes -57.5378
279
root -1.47313 18.8505 5.30023 14.2557 -0.751984 -1.75472
lowerback 26.5763 -1.45343 -2.00659
upperback 5.71203 -2.20432 1.97013
thorax -8.19896 -0.991307 4.06487
lowerneck -8.44521 3.61544 5.9706
upperneck 0.532033 4.42098 -5.76705
head 1.94816 2.09626 -2.73225
rclavicle 3.37934e-015 -1.23246e-014
rhumerus 19.3492 36.8934 -70.0531
rradius 45.8021
rwrist 16.3285
rhand -12.9821 -49.9994
rfingers 7.12502
rthumb 13.1105 -79.5673
lclavicle 3.37934e-015 -1.23246e-014
lhumerus -45.8237 -22.0061 91.3119
lradius 83.8655
lwrist 8.79806
lhand -16.8456 -24.2211
lfingers 7.12502
lthumb 9.38432 5.55001
rfemur -14.1578 0.723764 18.5948
rtibia 10.4603
rfoot -17.9663 -11.6436
rtoes -7.46142
lfemur -23.2191 1.00764 -9.5407
ltibia 24.4672
lfoot -15.3439 7.84465
ltoes -57.5832
280
root -1.43132 18.8506 5.29279 14.5287 -0.604584 -1.84671
lowerback 26.5033 -1.47744 -1.41115
upperback 5.56807 -2.08568 1.85213
thorax -8.36147 -0.942211 3.553
lowerneck -8.53399 3.42233 5.72931
upperneck 0.671489 4.17634 -5.48334
head 1.9774 1.9784 -2.60274
rclavicle -1.19271e-015 -5.1684e-015
rhumerus 18.5623 35.8218 -70.7336
rradius 45.8824
rwrist 16.673
rhand -12.9683 -49.8315
rfingers 7.12502
rthumb 13.1238 -79.3985
lclavicle -1.19271e-015 -5.1684e-015
lhumerus -45.9353 -22.3884 91.5566
lradius 84.2901
lwrist 8.57358
lhand -16.916 -24.1845
lfingers 7.12502
lthumb 9.31639 5.58963
rfemur -14.31 0.267241 18.6158
rtibia 10.0329
rfoot -17.4479 -11.6329
rtoes -8.28425
lfemur -23.7479 0.660849 -9.52723
ltibia 24.7104
lfoot -15.4132 8.14622
ltoes -57.6452
